# xmcd
#
# Track frame offsets:
#	150
#	12845
#	26367
#	38327
#	52997
#	64115
#	76912
#	87422
#	99265
#	111272
#	124657
#	136602
#	155120
#	165972
#	184335
#	198022
#	213202
#	226765
#
# Disc length: 3174 seconds
# Revision: 4
# Processed by: cddbd v1.5.2PL0 Copyright (c) Steve Scherf et al.
# Submitted via: dBpowerAMP V12.0
#
DISCID=cf0c6412
DTITLE=Various Artist - Queens of Country
DYEAR=1995
DGENRE=Country
TTITLE0=Patsy Cline - I Fall to Pieces
TTITLE1=Loretta Lynn - Coal Miner's Daughter
TTITLE2=Crystal Gayle - Don't It Make My Brown Eyes Blue
TTITLE3=Jeannie C. Riley - Harper Valley P.T.A.
TTITLE4=Reba McEntire - Can't Even Get the Blues
TTITLE5=Lynn Anderson - Rose Garden
TTITLE6=Connie Smith - Once a Day
TTITLE7=Skeeter Davis - The End of the World
TTITLE8=Tammy Wynette - Stand By Your Man
TTITLE9=Dolly Parton - Here You Come Again
TTITLE10=Kitty Wells - Heartbreak, U.S.A.
TTITLE11=Juice Newton - The Sweetest Thing I've Ever Known
TTITLE12=Tanya Tucker - Would You Lay with Me
TTITLE13=Janie Frickie - Tell Me a Lie
TTITLE14=Dottie West - A Lesson in Leavin'
TTITLE15=Jessi Colter - I'm Not Lisa
TTITLE16=Patti Page - Tennessee Waltz
TTITLE17=Debby Boone - On the Road to Lovin' Me Again
EXTD=
EXTT0=
EXTT1=
EXTT2=
EXTT3=
EXTT4=
EXTT5=
EXTT6=
EXTT7=
EXTT8=
EXTT9=
EXTT10=
EXTT11=
EXTT12=
EXTT13=
EXTT14=
EXTT15=
EXTT16=
EXTT17=
PLAYORDER=
